<svg xmlns="http://www.w3.org/2000/svg" viewBox="0.0 0.0 320.0 80.0">
  <g fill="none" stroke="#60a5fa" stroke-width="2.5">
    <circle cx="30" cy="40" r="8" />
    <line x1="30" y1="48" x2="30" y2="64" />
    <line x1="20" y1="56" x2="40" y2="56" />
    <line x1="30" y1="64" x2="22" y2="76" />
    <line x1="30" y1="64" x2="38" y2="76" />
    <circle cx="46" cy="40" r="8" />
    <line x1="46" y1="48" x2="46" y2="64" />
    <line x1="36" y1="56" x2="56" y2="56" />
    <line x1="46" y1="64" x2="38" y2="76" />
    <line x1="46" y1="64" x2="54" y2="76" />
  </g>
  <g transform="translate(70, 10)" stroke="#60a5fa" stroke-width="2" fill="none">
    <rect x="0" y="0" width="16" height="16" rx="2" />
    <line x1="4" y1="4" x2="12" y2="4" />
    <line x1="4" y1="8" x2="12" y2="8" />
    <line x1="4" y1="12" x2="8" y2="12" />
    <g transform="translate(0, 25)">
      <rect x="0" y="0" width="16" height="16" rx="2" />
      <polyline points="4,8 7,12 12,4" stroke-linecap="round" />
    </g>
    <g transform="translate(0, 50)">
      <circle cx="5" cy="14" r="1.5" />
      <circle cx="13" cy="14" r="1.5" />
      <path d="M0,2 H3 L6,12 H12 L15,4 H4" stroke-linecap="round" />
    </g>
  </g>
  <text x="110" y="55" font-family="Arial, sans-serif" font-size="36" font-weight="bold" letter-spacing="-1">
    <tspan fill="#ffffff">Room</tspan>
    <tspan fill="#60a5fa">Ease</tspan>
  </text>
</svg>